<svg width="88" height="88" viewBox="0 0 88 88" fill="none" xmlns="http://www.w3.org/2000/svg">
<circle opacity="0.3" cx="44" cy="44" r="44" fill="#00B04E"/>
<circle cx="44" cy="44" r="36" fill="#00B04E"/>
<path d="M31.5009 46.6634L31.501 46.6635L39.9 55.059C39.9003 55.0593 39.9005 55.0595 39.9008 55.0598C40.5159 55.6787 41.3283 55.9851 42.1301 55.9851C42.9359 55.9851 43.7447 55.6784 44.3596 55.0597C44.3598 55.0595 44.36 55.0592 44.3603 55.059L61.1526 38.2667C62.3847 37.0346 62.3847 35.0408 61.1526 33.8088C59.9206 32.5768 57.9268 32.5768 56.6948 33.8087C56.6948 33.8088 56.6948 33.8088 56.6947 33.8088L42.13 48.3701L35.9588 42.2056C35.9587 42.2055 35.9586 42.2054 35.9586 42.2054C34.7265 40.9735 32.7329 40.9736 31.5009 42.2056C30.2689 43.4376 30.2689 45.4314 31.5009 46.6634Z" fill="white" stroke="white"/>
</svg>
